<svg xmlns="http://www.w3.org/2000/svg" xmlns:xlink="http://www.w3.org/1999/xlink">
  <symbol id="tefal" viewBox="0 0 267 56">
    <path d="M256.56 3.23424H256.981L257.804 4.52649H258.469L257.571 3.19689C257.685 3.19602 257.798 3.17226 257.902 3.12703C258.007 3.08181 258.101 3.01606 258.179 2.93373C258.258 2.8514 258.318 2.75419 258.358 2.64794C258.397 2.54169 258.415 2.42861 258.409 2.31547C258.409 1.74404 258.067 1.3855 257.387 1.3855H256V4.52649H256.56V3.23424ZM256.56 2.74497V1.8897H257.226C257.526 1.8897 257.846 1.91585 257.846 2.28933C257.846 2.75245 257.564 2.76365 257.169 2.76365L256.56 2.74497Z" fill="#E2001A"/>
    <path d="M257.113 5.34081C256.635 5.34229 256.168 5.20282 255.77 4.94009C255.372 4.67736 255.062 4.30318 254.878 3.86496C254.694 3.42674 254.646 2.94421 254.738 2.47849C254.831 2.01278 255.06 1.58485 255.398 1.24892C255.735 0.912985 256.166 0.684172 256.634 0.591469C257.103 0.498766 257.588 0.546348 258.029 0.72818C258.471 0.910012 258.848 1.21792 259.113 1.61288C259.378 2.00784 259.519 2.47208 259.518 2.94679C259.518 3.261 259.457 3.57222 259.336 3.86266C259.215 4.15309 259.038 4.41704 258.815 4.63939C258.591 4.86175 258.326 5.03815 258.034 5.15851C257.742 5.27886 257.429 5.34081 257.113 5.34081ZM257.113 9.61372e-06C256.526 -0.00146855 255.952 0.170096 255.463 0.492992C254.975 0.815889 254.594 1.27559 254.368 1.81392C254.143 2.35224 254.083 2.94497 254.196 3.51708C254.31 4.08919 254.592 4.61496 255.006 5.02782C255.42 5.44068 255.949 5.72207 256.524 5.83638C257.099 5.95069 257.696 5.89278 258.238 5.66996C258.78 5.44715 259.244 5.06946 259.57 4.5847C259.896 4.09995 260.07 3.52992 260.07 2.94679C260.072 2.55989 259.997 2.17643 259.849 1.8185C259.702 1.46058 259.484 1.13528 259.209 0.861346C258.934 0.587417 258.607 0.37028 258.247 0.222449C257.888 0.0746179 257.502 -0.000981159 257.113 9.61372e-06Z" fill="#E2001A"/>
    <path d="M266.158 55.9628C266.268 55.9633 266.377 55.9422 266.479 55.9007C266.58 55.8593 266.673 55.7983 266.751 55.7212C266.828 55.6442 266.89 55.5526 266.932 55.4518C266.975 55.3509 266.996 55.2428 266.996 55.1336V49.3222C266.994 49.1023 266.905 48.892 266.748 48.7368C266.592 48.5816 266.38 48.4941 266.158 48.4931H258.398C256.59 48.4931 251.784 48.4072 249.157 47.1187C248.407 46.782 247.744 46.2801 247.218 45.6509C246.798 45.0692 246.585 44.3647 246.613 43.649V0.922612C246.613 0.701668 246.526 0.489607 246.369 0.332331C246.213 0.175056 246.001 0.0852213 245.779 0.0822754H228.819C228.709 0.0832519 228.6 0.105759 228.499 0.148519C228.398 0.19128 228.306 0.253455 228.229 0.331488C228.152 0.409521 228.091 0.501889 228.049 0.603314C228.008 0.704739 227.988 0.813237 227.989 0.922612V42.3157C227.989 44.4819 228.477 46.5174 229.439 47.9179C230.647 49.668 232.252 51.1112 234.125 52.1308C240.54 55.5818 251.855 55.9889 256.26 55.9628H266.158Z" fill="#E2001A"/>
    <path d="M39.1543 55.7087C39.3752 55.7087 39.5873 55.622 39.7442 55.4674C39.9012 55.3128 39.9903 55.1029 39.9923 54.8833V7.65264H60.5447C60.7663 7.65168 60.9787 7.56426 61.1362 7.40918C61.2936 7.25411 61.3835 7.04379 61.3864 6.82351V1.03453C61.3835 0.814252 61.2936 0.603935 61.1362 0.448861C60.9787 0.293787 60.7663 0.206358 60.5447 0.205398H0.845543C0.735216 0.203909 0.625698 0.224281 0.523383 0.265328C0.421069 0.306375 0.32801 0.367271 0.249641 0.444461C0.171272 0.521652 0.109163 0.61359 0.0669463 0.714902C0.0247291 0.816215 0.00324878 0.924875 0.00375822 1.03453V6.82351C0.00424871 6.9332 0.0265351 7.04172 0.0693403 7.14282C0.112146 7.24393 0.174627 7.33563 0.253193 7.41268C0.331759 7.48972 0.424865 7.55057 0.527162 7.59175C0.62946 7.63293 0.738935 7.65362 0.849301 7.65264H21.3641V54.8833C21.3636 54.9921 21.3848 55.1 21.4266 55.2006C21.4684 55.3012 21.5299 55.3926 21.6075 55.4693C21.6851 55.5461 21.7773 55.6068 21.8788 55.6479C21.9802 55.689 22.0888 55.7097 22.1983 55.7087H39.1543Z" fill="#E2001A"/>
    <path d="M95.133 28.0636C95.1573 28.7758 94.9461 29.4764 94.5317 30.058C94.0109 30.6906 93.3463 31.1911 92.5926 31.5183C89.962 32.8068 85.1631 32.9039 83.3367 32.9039H68.5604V26.4427C68.5306 25.7303 68.738 25.028 69.1504 24.4446C69.6762 23.8183 70.3413 23.3222 71.0933 22.9954C73.7239 21.6957 78.5303 21.6098 80.3491 21.6098H83.3367C85.1631 21.6098 89.9508 21.6957 92.5926 22.9954C93.3447 23.3202 94.0091 23.8167 94.5317 24.4446C94.9429 25.0291 95.1537 25.7297 95.133 26.4427V28.0636ZM113.498 55.7013C113.719 55.7003 113.931 55.6127 114.087 55.4574C114.243 55.3021 114.331 55.0918 114.332 54.8722V49.1019C114.332 48.8816 114.244 48.6705 114.088 48.514C113.931 48.3575 113.72 48.2682 113.498 48.2653H80.3717C78.5528 48.2653 73.7502 48.1644 71.1083 46.8759C70.3563 46.5494 69.692 46.0517 69.1692 45.4231C68.7574 44.8363 68.549 44.1323 68.5754 43.4175V40.3586H85.4863C89.8831 40.3586 101.503 40.1383 107.906 37.0197C110.007 35.9964 111.578 34.8535 112.611 33.4791C114.81 30.5547 115.005 24.7023 112.634 21.5463C111.589 20.1868 110.003 19.0141 107.929 18.002C101.522 14.8797 89.8906 14.6406 85.5051 14.6406H78.2334C73.8291 14.6406 62.2207 14.988 55.8134 18.0991C53.9643 18.9768 52.3527 20.2802 51.1121 21.9011C50.1539 23.1523 49.6728 24.9861 49.6728 26.9618V43.4175C49.6728 45.3745 50.1539 47.2046 51.1121 48.4744C52.354 50.0888 53.964 51.3868 55.8096 52.2615C62.2169 55.3726 73.8253 55.7349 78.2297 55.7088L113.498 55.7013Z" fill="#E2001A"/>
    <path d="M199.462 44.2092C199.487 44.9227 199.273 45.6242 198.853 46.2036C198.335 46.8381 197.673 47.3412 196.921 47.6714C194.291 48.9562 189.473 49.0533 187.662 49.0533H184.682C182.852 49.0533 178.06 48.9562 175.418 47.6714C174.663 47.336 173.995 46.834 173.464 46.2036C173.056 45.6193 172.848 44.9201 172.87 44.2092V42.3157C172.849 41.6014 173.057 40.8989 173.464 40.3101C173.998 39.6853 174.666 39.1865 175.418 38.8498C178.049 37.5687 182.852 37.4754 184.682 37.4754H199.462V44.2092ZM216.903 22.1738C215.65 20.5696 214.038 19.2791 212.194 18.4053C205.805 15.2793 194.174 14.917 189.77 14.9394H180.728H160.845C160.734 14.9379 160.625 14.9581 160.522 14.9988C160.419 15.0395 160.326 15.0998 160.246 15.1765C160.167 15.2531 160.104 15.3445 160.06 15.4455C160.017 15.5464 159.993 15.6549 159.992 15.7648V21.5725C159.995 21.7947 160.086 22.0067 160.246 22.1621C160.406 22.3175 160.621 22.4036 160.845 22.4016H187.639C189.451 22.4016 194.242 22.495 196.888 23.7797C197.643 24.1093 198.31 24.6108 198.834 25.2438C199.255 25.8241 199.469 26.5272 199.443 27.2419V30.0206H182.532C178.135 30.0206 166.508 30.241 160.116 33.3596C158.023 34.3792 156.448 35.5407 155.411 36.9077C153.062 40.0337 153.055 45.987 155.411 49.1131C156.444 50.4875 158.041 51.6378 160.112 52.6612C166.501 55.7835 178.12 56.0001 182.528 56.0001H189.781C194.186 56.0001 205.805 55.6752 212.205 52.5416C214.046 51.6604 215.658 50.3681 216.914 48.7657C217.857 47.4959 218.349 45.6658 218.349 43.6938V27.2606C218.349 25.2886 217.857 23.4548 216.914 22.1887" fill="#E2001A"/>
    <path d="M122.273 54.8833C122.273 54.9918 122.294 55.0994 122.335 55.1998C122.377 55.3001 122.438 55.3913 122.515 55.4681C122.592 55.5448 122.684 55.6056 122.785 55.6469C122.886 55.6882 122.994 55.7092 123.104 55.7087H140.014C140.125 55.7097 140.234 55.6891 140.336 55.6482C140.438 55.6072 140.531 55.5467 140.609 55.4701C140.688 55.3934 140.75 55.3021 140.793 55.2015C140.836 55.1008 140.859 54.9927 140.86 54.8833V22.3903H151.217C151.44 22.3893 151.653 22.3009 151.811 22.1442C151.969 21.9875 152.058 21.7753 152.059 21.5537V15.7834C152.058 15.5618 151.969 15.3496 151.811 15.1929C151.653 15.0362 151.44 14.9478 151.217 14.9468H140.875V12.381C140.842 11.6665 141.051 10.9616 141.469 10.3791C141.989 9.74698 142.652 9.24649 143.404 8.91879C146.054 7.63028 151.161 7.5369 152.991 7.5369H160.416C160.527 7.5374 160.637 7.5161 160.739 7.47423C160.842 7.43236 160.935 7.37076 161.013 7.29297C161.091 7.21519 161.153 7.12276 161.195 7.02104C161.237 6.91932 161.259 6.81031 161.258 6.70031V0.922527C161.259 0.81235 161.237 0.703157 161.195 0.601224C161.153 0.499291 161.091 0.406625 161.013 0.328543C160.935 0.250462 160.842 0.188506 160.739 0.14623C160.637 0.103953 160.527 0.0821903 160.416 0.0821914H150.849C146.444 0.0560476 134.825 0.455671 128.432 3.92533C126.55 4.92905 124.937 6.36589 123.727 8.1158C122.773 9.52757 122.273 11.5518 122.273 14.2484V54.8833Z" fill="#E2001A"/>
    <defs>
    <clipPath id="clip0_2_6410">
    <rect width="267" height="56" fill="white"/>
    </clipPath>
    </defs>
  </symbol>

  <symbol id="icon_1" viewBox="0 0 82 81">
    <path d="M40.9986 80.5438C18.9263 80.5438 0.966797 62.587 0.966797 40.5121C0.966797 18.4371 18.9263 0.469482 40.9986 0.469482C63.0708 0.469482 81.0304 18.429 81.0304 40.5013C81.0304 62.5735 63.0735 80.5438 40.9986 80.5438ZM40.9986 2.73635C20.1677 2.73635 3.21747 19.6839 3.21747 40.5174C3.21747 61.351 20.1623 78.2985 40.9986 78.2985C61.8349 78.2985 78.7797 61.351 78.7797 40.5174C78.7797 19.6839 61.8295 2.72555 40.9986 2.72555V2.73635Z" fill="#383838"/>
    <path d="M40.9986 81.0027C18.6673 81.0027 0.5 62.8327 0.5 40.5013C0.5 18.17 18.6673 0 40.9986 0C63.33 0 81.5 18.17 81.5 40.5013C81.5 62.8327 63.33 81.0027 40.9986 81.0027ZM40.9986 0.939129C19.1828 0.933732 1.43913 18.6882 1.43913 40.5013C1.43913 62.3145 19.1855 80.0636 41.0013 80.0636C62.8172 80.0636 80.5636 62.3172 80.5636 40.5013C80.5636 18.6855 62.8118 0.933733 40.9986 0.933733V0.939129ZM40.9986 78.7466C19.9087 78.7466 2.75337 61.5913 2.75337 40.5013C2.75337 19.4114 19.9087 2.25607 40.9986 2.25607C62.0886 2.25607 79.2466 19.4141 79.2466 40.5013C79.2466 61.5886 62.0886 78.7466 40.9986 78.7466ZM40.9986 3.18441C20.4268 3.18441 3.6925 19.916 3.6925 40.4906C3.6925 61.0651 20.4241 77.7967 40.9986 77.7967C61.5732 77.7967 78.3075 61.0651 78.3075 40.4906C78.3075 19.916 61.5705 3.1952 40.9986 3.1952V3.18441Z" fill="#383838"/>
    <path d="M10.6496 58.5985L11.4592 58.1748L10.458 56.2857L9.64838 56.7067L9.17072 55.8054L10.7656 54.9634L10.7953 55.0174C11.0922 55.5301 11.5401 55.3709 12.4361 54.985L13.9284 54.3535L15.2238 56.8039L12.5036 58.2369L12.7221 58.6525L11.1245 59.4944L10.6496 58.5985ZM12.5036 56.0375C12.1876 56.204 11.8378 56.2963 11.4808 56.3073L12.0205 57.3193L13.923 56.3154L13.5344 55.5814L12.5036 56.0375Z" fill="#383838"/>
    <path d="M15.9765 59.5965L14.9915 60.2091C13.8284 60.9459 13.2401 60.9621 12.4413 59.8826L13.1618 59.3429C13.545 59.861 13.8392 59.7396 14.7351 59.1729L16.1924 58.2661L17.8116 60.4412L14.6083 62.8133L13.9741 61.9552L16.4029 60.1633L15.9765 59.5965Z" fill="#383838"/>
    <path d="M17.9008 64.1468L16.1494 64.4788L15.2858 63.6152L17.2397 63.3453C17.081 63.124 17.01 62.8517 17.0404 62.581C17.0708 62.3104 17.2005 62.0606 17.4043 61.88C18.0439 61.2404 18.7536 61.4509 19.4148 62.1228L20.5779 63.286L17.7659 66.0952L17.013 65.3423L18.06 64.306L17.9008 64.1468ZM18.8615 62.668C18.6079 62.4116 18.3353 62.3792 18.0978 62.6167C17.8603 62.8542 17.8576 63.1375 18.141 63.4263L18.5377 63.823L19.2744 63.0836L18.8615 62.668Z" fill="#383838"/>
    <path d="M23.838 65.728C24.6206 66.2677 24.8419 66.8074 24.4641 67.3822C24.3766 67.5248 24.2521 67.641 24.1038 67.7184C23.9556 67.7959 23.7891 67.8317 23.6221 67.8221C23.7343 68.0022 23.7869 68.2132 23.7724 68.4249C23.7578 68.6366 23.6769 68.8383 23.5412 69.0014C23.1202 69.6248 22.4239 69.5735 21.617 69.0284L20.2164 68.0839L22.4374 64.7834L23.838 65.728ZM22.0245 68.3673C22.3295 68.5724 22.5777 68.5912 22.7721 68.316C22.9664 68.0407 22.853 67.7951 22.5481 67.59L22.0569 67.2608L21.5334 68.0353L22.0245 68.3673ZM22.9151 67.0422C22.9607 67.0834 23.0146 67.1144 23.0732 67.1331C23.1317 67.1518 23.1936 67.1578 23.2547 67.1506C23.3158 67.1434 23.3746 67.1233 23.4272 67.0916C23.4799 67.0599 23.5252 67.0173 23.5601 66.9667C23.722 66.713 23.6086 66.5079 23.3658 66.346L22.8881 66.0248L22.4266 66.713L22.9151 67.0422Z" fill="#383838"/>
    <path d="M27.0493 70.9989C26.8027 71.2379 26.4851 71.3903 26.1444 71.4331C25.8037 71.4759 25.4583 71.4069 25.1602 71.2364C24.4613 70.8694 23.962 70.0868 24.3992 69.2502L25.0118 68.0871C25.449 67.2532 26.38 67.2154 27.079 67.5824C27.3868 67.7189 27.638 67.9577 27.7899 68.2582C27.9419 68.5587 27.9853 68.9024 27.9129 69.2313L26.971 69.0586C26.9915 68.9313 26.9695 68.8008 26.9086 68.6872C26.8476 68.5736 26.751 68.4832 26.6337 68.4298C26.5799 68.3945 26.5195 68.3704 26.4562 68.3587C26.393 68.3471 26.328 68.3482 26.2651 68.3621C26.2023 68.3759 26.1428 68.4021 26.0903 68.4392C26.0377 68.4764 25.9931 68.5236 25.959 68.5782L25.3626 69.7494C25.3353 69.8084 25.3202 69.8722 25.3184 69.9372C25.3165 70.0021 25.3279 70.0667 25.3519 70.1271C25.3759 70.1875 25.412 70.2423 25.4579 70.2883C25.5038 70.3343 25.5587 70.3704 25.619 70.3944C25.7368 70.4609 25.8729 70.4876 26.0071 70.4706C26.1412 70.4535 26.2663 70.3937 26.3638 70.3L27.0493 70.9989Z" fill="#383838"/>
    <path d="M30.4901 72.7175C30.271 72.8888 30.01 72.9983 29.7342 73.0343C29.4584 73.0704 29.178 73.0318 28.9222 72.9226C28.1774 72.6339 27.5944 71.9079 27.9318 71.0336L28.4013 69.8084C28.7441 68.9097 29.6724 68.791 30.4172 69.0743C31.1621 69.3577 31.7072 70 31.3645 70.8932L30.9462 71.9727L29.0031 71.2279L28.9411 71.3925C28.8304 71.6785 29.0436 71.9322 29.3324 72.0456C29.4428 72.0938 29.5635 72.1138 29.6836 72.1039C29.8037 72.094 29.9195 72.0545 30.0205 71.9889L30.4901 72.7175ZM30.4199 70.5424C30.5171 70.286 30.3309 70.0647 30.0799 69.9676C30.0234 69.936 29.9611 69.916 29.8967 69.9088C29.8324 69.9016 29.7672 69.9074 29.7051 69.9257C29.643 69.9441 29.5852 69.9747 29.5351 70.0157C29.485 70.0567 29.4436 70.1073 29.4133 70.1646L29.2865 70.4938L30.2904 70.8797L30.4199 70.5424Z" fill="#383838"/>
    <path d="M33.9793 72.2998C34.2302 72.9475 34.5595 73.9514 34.7889 74.5586L33.561 74.2536L33.2587 73.3253L33.2075 72.8935H33.1562L32.8863 73.2605C32.7082 73.4306 32.5193 73.6195 32.1901 73.9271L31.0215 73.6384L32.7487 72.0192C32.6137 71.6387 32.5301 71.2689 31.9742 69.782L33.1427 70.0707L33.4638 71.08L33.5151 71.4821H33.5583L33.7823 71.1502C33.928 71.0099 34.179 70.7319 34.5136 70.3973L35.728 70.6968L33.9793 72.2998Z" fill="#383838"/>
    <path d="M38.2783 74.9681L38.4726 71.9105L37.3931 71.8404L37.4525 70.9282L40.6558 71.1333L40.5991 72.0455L39.5197 71.978L39.3254 75.0356L38.2783 74.9681Z" fill="#383838"/>
    <path d="M43.7052 72.4156H43.6836L43.492 73.066L42.5933 75.0441L41.4842 75.1143L41.2332 71.1472L42.3127 71.0798L42.4314 72.9688V73.7299H42.453L42.6581 73.0876L43.5217 71.0096L44.6389 70.9395L44.8899 74.9065L43.8104 74.9739L43.6971 73.182L43.7052 72.4156Z" fill="#383838"/>
    <path d="M46.6902 71.5493L47.2651 74.5178L46.218 74.7229L45.4597 70.8152L48.6171 70.2026L49.3754 74.1076L48.3202 74.3127L47.7454 71.3442L46.6902 71.5493Z" fill="#383838"/>
    <path d="M49.7449 71.3013C49.4588 70.4 50.0768 69.7118 50.8244 69.4636C51.5719 69.2153 52.4813 69.4366 52.7674 70.3352L53.1614 71.5712C53.4528 72.4861 52.8268 73.1499 52.0819 73.3982C51.3371 73.6465 50.425 73.4495 50.1335 72.5346L49.7449 71.3013ZM50.7407 70.91L51.1617 72.2351C51.2242 72.3394 51.32 72.4196 51.4338 72.4626C51.5475 72.5056 51.6724 72.509 51.7883 72.4721C51.9042 72.4353 52.0042 72.3603 52.0722 72.2595C52.1402 72.1587 52.1722 72.0379 52.1629 71.9166L51.7419 70.5916C51.6663 70.3514 51.3587 70.3028 51.1266 70.3784C50.8945 70.454 50.657 70.6699 50.7353 70.91H50.7407Z" fill="#383838"/>
    <path d="M54.6026 68.0736C55.4527 67.6662 56.0518 67.7633 56.3432 68.3732C56.4222 68.5209 56.4597 68.6872 56.4516 68.8545C56.4435 69.0218 56.3902 69.1838 56.2974 69.3231C56.5092 69.3175 56.7175 69.3789 56.8924 69.4986C57.0674 69.6183 57.2001 69.7902 57.2716 69.9897C57.5954 70.6671 57.196 71.2392 56.3189 71.6601L54.7942 72.3888L53.0806 68.805L54.6026 68.0736ZM55.2665 69.5363C55.326 69.5191 55.3811 69.4893 55.428 69.4487C55.4749 69.4082 55.5125 69.358 55.5381 69.3016C55.5638 69.2452 55.5769 69.1839 55.5766 69.1219C55.5763 69.0599 55.5625 68.9988 55.5363 68.9426C55.3987 68.6728 55.1666 68.6727 54.9049 68.7942L54.384 69.0425L54.7429 69.79L55.2665 69.5363ZM55.9573 70.9747C56.2893 70.8155 56.4296 70.6104 56.2893 70.3054C56.1489 70.0005 55.8845 69.9708 55.5525 70.13L55.0128 70.3864L55.4176 71.2311L55.9573 70.9747Z" fill="#383838"/>
    <path d="M59.3198 66.3057L61.1576 68.6994L60.3102 69.3498L57.8814 66.1951L60.4343 64.2358L62.8631 67.3906L62.0103 68.0436L60.1726 65.6526L59.3198 66.3057Z" fill="#383838"/>
    <path d="M62.8926 63.2135L63.6482 64.0959C64.555 65.1322 64.6602 65.7151 63.713 66.6651L63.0761 66.0336C63.5295 65.5775 63.3649 65.3049 62.6686 64.5061L61.5514 63.2027L63.4593 61.2812L66.2794 64.0825L65.5292 64.8381L63.3892 62.7142L62.8926 63.2135Z" fill="#383838"/>
    <path d="M66.5954 59.5943L66.5738 59.6078L66.9435 60.1772L67.8611 62.1472L67.1891 63.035L64.0155 60.6386L64.6578 59.7886L66.1663 60.9274L66.7411 61.4266V61.4077L66.3984 60.8437L65.3972 58.8251L66.0746 57.9319L69.2482 60.3283L68.6005 61.1838L67.1675 60.1043L66.5954 59.5943Z" fill="#383838"/>
    <path d="M70.3411 58.5041L67.6748 56.9983L67.1513 57.9266L66.3552 57.4787L67.9312 54.6855L68.7273 55.1362L68.201 56.0619L70.8673 57.5677L70.3411 58.5041Z" fill="#383838"/>
    <path d="M11.4241 34.6157L8.45556 33.8574L8.18569 34.891L7.30054 34.6643L8.09664 31.5554L8.9791 31.7821L8.70923 32.8157L11.6939 33.5875L11.4241 34.6157Z" fill="#383838"/>
    <path d="M12.5171 29.1507C12.6883 29.37 12.7972 29.6313 12.8324 29.9073C12.8675 30.1832 12.8276 30.4635 12.7168 30.7187C12.4307 31.4662 11.7021 32.0491 10.8277 31.7091L9.60252 31.2368C8.70387 30.8914 8.58513 29.963 8.87388 29.2182C9.16264 28.4734 9.79952 27.9283 10.6955 28.2737L11.7749 28.6947L11.0274 30.6377L11.192 30.6998C11.4781 30.8104 11.7318 30.5945 11.8451 30.3085C11.894 30.1982 11.9145 30.0774 11.9046 29.9572C11.8947 29.8369 11.8547 29.7211 11.7884 29.6203L12.5171 29.1507ZM10.342 29.2182C10.0721 29.1184 9.86429 29.3046 9.76714 29.5555C9.66999 29.8065 9.69697 30.1223 9.96144 30.2248L10.2907 30.3516L10.6793 29.3477L10.342 29.2182Z" fill="#383838"/>
    <path d="M12.6762 25.9391C13.3643 25.8555 14.4222 25.7826 15.0645 25.7017L14.4681 26.8189L13.4939 26.881L13.0621 26.8243L13.0378 26.8729L13.3266 27.2264C13.448 27.4396 13.5964 27.669 13.8042 28.0657L13.2348 29.129L12.0879 27.0537C11.6858 27.0888 11.308 27.0807 9.72656 27.2534L10.2933 26.1901L11.3538 26.1308L11.7532 26.1793L11.7775 26.1388L11.5077 25.8393C11.4078 25.6639 11.2 25.3535 10.9679 24.946L11.5562 23.8396L12.6762 25.9391Z" fill="#383838"/>
    <path d="M14.6248 23.5645L15.9229 24.4956L15.2995 25.3618L12.0611 23.0437L12.6818 22.1774L13.8368 23.0032L14.4629 22.1316L13.3133 21.3031L13.9421 20.4287L17.1804 22.7469L16.5517 23.6212L15.2536 22.6902L14.6248 23.5645Z" fill="#383838"/>
    <path d="M15.6882 20.426C14.9973 19.781 15.1997 18.8797 15.7394 18.2914C16.2792 17.7031 17.1697 17.4548 17.8579 18.0998L18.8051 18.9822C19.5067 19.6353 19.2882 20.5232 18.7565 21.1061C18.2249 21.689 17.337 21.9642 16.6354 21.3112L15.6882 20.426ZM16.3628 19.6002L17.3802 20.5474C17.4859 20.6073 17.6086 20.6299 17.7287 20.6114C17.8487 20.5928 17.959 20.5344 18.0417 20.4455C18.1244 20.3565 18.1747 20.2423 18.1844 20.1212C18.1941 20.0002 18.1628 19.8793 18.0954 19.7783L17.0915 18.8311C16.9079 18.6584 16.6192 18.7663 16.4492 18.9444C16.2792 19.1226 16.1793 19.4275 16.3628 19.6002Z" fill="#383838"/>
    <path d="M19.5549 16.1082L20.2215 17.0581C21.0311 18.1808 21.0689 18.7691 20.0326 19.6245L19.4605 18.931C19.957 18.5208 19.8221 18.2347 19.2068 17.3712L18.2218 15.9652L20.3106 14.238L22.8419 17.301L22.0188 17.9811L20.1001 15.6575L19.5549 16.1082Z" fill="#383838"/>
    <path d="M21.9974 14.6782C21.4928 13.8686 21.9219 13.059 22.5938 12.6272C23.2658 12.1954 24.1914 12.1873 24.6934 12.9861L25.3843 14.0845C25.8943 14.8941 25.4544 15.7037 24.7879 16.1247C24.1213 16.5457 23.1956 16.5888 22.6856 15.7765L21.9974 14.6782ZM22.8637 14.0548L23.6004 15.2287C23.6869 15.3145 23.7999 15.3686 23.921 15.382C24.0421 15.3955 24.1642 15.3675 24.2674 15.3028C24.3706 15.2381 24.4489 15.1403 24.4895 15.0254C24.5301 14.9105 24.5306 14.7853 24.491 14.6701L23.7543 13.4935C23.6736 13.4025 23.561 13.3461 23.4399 13.3361C23.3188 13.326 23.1984 13.3631 23.1039 13.4395C22.888 13.5744 22.7288 13.8389 22.8637 14.0548Z" fill="#383838"/>
    <path d="M26.7039 14.9073L24.9794 11.3235L27.2625 10.2224L27.6808 11.0887L26.3584 11.7256L27.6673 14.4458L26.7039 14.9073Z" fill="#383838"/>
    <path d="M30.8842 10.4249H30.8545L30.841 11.1022L30.4929 13.2477L29.4431 13.6174L28.1558 9.83928L29.1651 9.49385L29.7723 11.2831L29.9666 12.0198H29.9882L30.0179 11.3451L30.3147 9.11064L31.3753 8.74902L32.6545 12.5271L31.6371 12.8726L31.0596 11.1724L30.8842 10.4249Z" fill="#383838"/>
    <path d="M34.9159 10.5224L34.2143 12.1632L33.0161 12.398L33.8796 10.625C33.6075 10.6334 33.3418 10.5407 33.134 10.3648C32.9262 10.1889 32.7909 9.94217 32.7543 9.67233C32.5816 8.78178 33.1456 8.32301 34.0794 8.1368L35.6985 7.81836L36.4596 11.7287L35.4125 11.9338L35.1426 10.4846L34.9159 10.5224ZM34.2224 8.90322C33.8689 8.97338 33.6826 9.17308 33.7555 9.51041C33.8284 9.84774 34.0551 10.0016 34.4464 9.92331L34.9861 9.81536L34.7837 8.78987L34.2224 8.90322Z" fill="#383838"/>
    <path d="M39.9272 8.32564H42.1536V9.43749L39.9272 9.45368V11.4804H38.7938L38.756 6.04529L42.4342 6.021V7.11935L39.8948 7.13554L39.9272 8.32564Z" fill="#383838"/>
    <path d="M46.1369 11.6907C45.6359 11.8088 45.1188 11.8426 44.6067 11.7905C43.7405 11.6799 42.9876 11.2508 43.1333 10.1201L43.4571 7.56445L44.515 7.69669L44.1992 10.1929C44.1819 10.2798 44.1838 10.3693 44.2047 10.4554C44.2256 10.5414 44.2651 10.6218 44.3204 10.691C44.3756 10.7601 44.4454 10.8164 44.5247 10.8557C44.604 10.8951 44.6909 10.9167 44.7795 10.9189C44.9092 10.9364 45.0411 10.9291 45.1681 10.8973L45.5567 7.82352L46.6064 7.95576L46.1369 11.6907Z" fill="#383838"/>
    <path d="M48.5117 12.5384C48.4382 12.5315 48.3652 12.5198 48.2931 12.5033C47.2892 12.2739 46.9951 11.5291 47.1786 10.7357L48.0853 6.79834L49.1243 7.03852L48.2176 10.9732C48.1528 11.2646 48.2904 11.5507 48.7168 11.6478L48.5117 12.5384Z" fill="#383838"/>
    <path d="M50.5547 13.1504C50.4791 13.1342 50.4036 13.1207 50.3361 13.0992C49.3538 12.7969 49.1163 12.0197 49.3538 11.256L50.5547 7.4104L51.5748 7.72344L50.3874 11.5825C50.301 11.8686 50.4171 12.1627 50.8354 12.2896L50.5547 13.1504Z" fill="#383838"/>
    <path d="M53.4204 14.2463L52.3895 13.7903L54.5808 8.81396L55.6117 9.27004L53.4204 14.2463Z" fill="#383838"/>
    <path d="M56.0354 11.3586C56.5333 11.3853 57.0187 11.5247 57.4549 11.7661C58.2375 12.206 58.7664 12.9724 58.251 13.8819L56.9691 16.146L56.0462 15.6252L57.3092 13.3934C57.346 13.3266 57.3683 13.2528 57.3746 13.1767C57.3808 13.1007 57.3708 13.0242 57.3453 12.9522C57.3198 12.8803 57.2794 12.8146 57.2266 12.7595C57.1739 12.7044 57.11 12.6611 57.0393 12.6324C56.9073 12.5576 56.7591 12.516 56.6075 12.511L55.1422 15.1125L54.2111 14.5862L56.0354 11.3586Z" fill="#383838"/>
    <path d="M60.2075 18.2533C59.6982 18.1058 59.2187 17.8702 58.7907 17.5571C58.1242 17.0551 57.741 16.3373 58.2996 15.4683L59.1443 14.3484C59.6516 13.6737 60.5422 13.7169 61.1332 14.1541C61.3135 14.2889 61.4626 14.461 61.5704 14.6587L62.4825 13.4497L63.3407 14.0974L60.2075 18.2533ZM61.0792 15.3064C60.9173 14.9448 60.3452 14.6101 60.0267 14.9475L59.0876 16.1888C58.8177 16.5801 59.29 17.0713 59.6948 17.1469L61.0792 15.3064Z" fill="#383838"/>
    <path d="M63.0547 20.9657C62.5838 20.7593 62.1513 20.4746 61.7755 20.1238C61.1467 19.5139 60.8202 18.7097 61.6055 17.9028L63.4082 16.0569L64.1692 16.8017L62.4124 18.6017C62.3456 18.6605 62.2925 18.7332 62.2568 18.8148C62.221 18.8963 62.2036 18.9846 62.2057 19.0736C62.2077 19.1626 62.2292 19.25 62.2687 19.3298C62.3081 19.4096 62.3646 19.4798 62.434 19.5354C62.5272 19.6281 62.637 19.7023 62.7578 19.754L64.9168 17.5357L65.6751 18.2752L63.0547 20.9657Z" fill="#383838"/>
    <path d="M66.099 23.4404C65.7784 23.5573 65.4287 23.568 65.1017 23.4708C64.7746 23.3736 64.4875 23.1737 64.2828 22.9007C63.7916 22.2827 63.6459 21.3652 64.3826 20.7769L65.4081 19.9673C66.1448 19.3763 67.0138 19.7136 67.5077 20.3316C67.7331 20.5808 67.8661 20.8999 67.8843 21.2355C67.9024 21.5711 67.8047 21.9027 67.6075 22.1748L66.8168 21.635C66.8854 21.5264 66.9167 21.3983 66.906 21.2702C66.8953 21.1422 66.8432 21.0211 66.7574 20.9253C66.7225 20.8711 66.6771 20.8245 66.6238 20.7882C66.5706 20.752 66.5106 20.7268 66.4474 20.7142C66.3842 20.7016 66.3191 20.7019 66.256 20.7149C66.1929 20.728 66.133 20.7537 66.0801 20.7904L65.0573 21.6C65.0086 21.6429 64.9691 21.6954 64.9414 21.7541C64.9136 21.8128 64.8981 21.8766 64.8958 21.9415C64.8936 22.0064 64.9045 22.0711 64.9281 22.1317C64.9517 22.1922 64.9874 22.2473 65.033 22.2935C65.1144 22.4015 65.2284 22.4806 65.3581 22.5189C65.4878 22.5573 65.6264 22.553 65.7535 22.5067L66.099 23.4404Z" fill="#383838"/>
    <path d="M66.6627 26.0824C65.7883 25.3861 65.7263 24.4389 66.7679 23.775L69.6744 21.886L70.2141 22.7091L69.5152 23.2488L69.8984 23.8425L69.0888 24.3822L68.7083 23.7885L67.3589 24.6575C66.9784 24.9031 67.0054 25.1972 67.4048 25.6047L66.6627 26.0824Z" fill="#383838"/>
    <path d="M70.924 25.6696L67.4158 27.5857L66.903 26.6492L70.3951 24.7332L70.924 25.6696ZM72.0574 24.4148C72.1016 24.4875 72.1303 24.5685 72.1416 24.6529C72.153 24.7372 72.1469 24.8229 72.1235 24.9048C72.1002 24.9866 72.0603 25.0627 72.0062 25.1284C71.9521 25.1941 71.885 25.2479 71.8092 25.2864C71.7357 25.3305 71.6539 25.3589 71.569 25.37C71.484 25.381 71.3977 25.3744 71.3154 25.3506C71.2331 25.3268 71.1566 25.2863 71.0906 25.2316C71.0247 25.1769 70.9707 25.1092 70.9321 25.0327C70.8924 24.9587 70.8679 24.8775 70.86 24.7938C70.8521 24.7102 70.861 24.6258 70.8862 24.5456C70.9113 24.4654 70.9522 24.3911 71.0064 24.3269C71.0606 24.2627 71.1271 24.21 71.202 24.1719C71.2738 24.1308 71.353 24.1044 71.435 24.0943C71.5171 24.0842 71.6004 24.0905 71.68 24.1128C71.7596 24.1352 71.834 24.1731 71.8988 24.2245C71.9636 24.2759 72.0175 24.3396 72.0574 24.4121V24.4148Z" fill="#383838"/>
    <path d="M70.2061 27.1645C71.0724 26.7921 71.8253 27.3399 72.1411 28.0685C72.4568 28.7972 72.3354 29.7147 71.4691 30.0871L70.279 30.6026C69.3992 30.9831 68.6733 30.4272 68.3522 29.7039C68.031 28.9807 68.1363 28.0604 69.016 27.6799L70.2061 27.1645ZM70.6919 28.1171L69.4181 28.6568C69.3102 28.7226 69.2313 28.8269 69.1972 28.9486C69.1632 29.0703 69.1765 29.2004 69.2346 29.3126C69.277 29.4302 69.3624 29.5273 69.4736 29.5844C69.5848 29.6415 69.7135 29.6543 69.8337 29.6203L71.1075 29.0805C71.3423 28.9807 71.3585 28.673 71.2613 28.4464C71.1642 28.2197 70.924 28.0173 70.6919 28.1171Z" fill="#383838"/>
    <path d="M72.8346 30.7214C73.1708 31.09 73.4206 31.5288 73.566 32.006C73.8142 32.8696 73.655 33.7844 72.6538 34.0732L70.1549 34.7964L69.8607 33.779L72.3219 33.0666C72.3945 33.0446 72.4617 33.0076 72.519 32.9579C72.5764 32.9082 72.6226 32.847 72.6547 32.7782C72.6868 32.7094 72.704 32.6347 72.7052 32.5588C72.7065 32.483 72.6917 32.4077 72.6619 32.3379C72.6213 32.1908 72.5442 32.0562 72.4379 31.9466L69.5693 32.7778L69.2724 31.7523L72.8346 30.7214Z" fill="#383838"/>
    <path d="M23.0582 60.5467C22.9205 60.7618 22.8739 61.0228 22.9286 61.2723C22.9832 61.5218 23.1347 61.7393 23.3497 61.8772C23.5052 61.9768 23.6858 62.0301 23.8705 62.031C24.0321 62.0311 24.191 61.9903 24.3325 61.9124C24.4741 61.8346 24.5937 61.7222 24.6801 61.5857C24.9095 61.2295 26.9821 57.9776 29.4648 53.5087C32.1311 57.8265 34.3953 60.9381 34.8378 61.5425C34.911 61.677 35.0157 61.7918 35.1428 61.8772C35.1563 61.8772 35.1725 61.8772 35.186 61.8907C35.3164 61.9648 35.4625 62.0073 35.6124 62.0148C35.6285 62.0148 35.6447 62.031 35.6609 62.031C35.6771 62.031 35.7122 62.0121 35.7392 62.0094C35.854 62.004 35.9667 61.9765 36.0711 61.9285C36.0944 61.9193 36.1169 61.9085 36.1386 61.8961C36.1785 61.8808 36.2173 61.8628 36.2546 61.8421C36.3775 61.7479 36.4748 61.6245 36.538 61.4832C36.9239 60.8814 38.8939 57.7617 41.2552 53.5087C43.6246 57.3354 45.681 60.2337 46.4231 61.2592C46.4486 61.3851 46.4989 61.5046 46.5712 61.6107C46.6435 61.7168 46.7363 61.8074 46.8441 61.8772C46.9997 61.9768 47.1803 62.0301 47.365 62.031C47.3839 62.031 47.4028 62.031 47.4243 62.0148C47.6459 62.0315 47.8663 61.9704 48.0477 61.8421C48.1515 61.7641 48.2386 61.6661 48.3039 61.554C48.3692 61.4418 48.4115 61.3177 48.4282 61.189C49.0786 60.1581 50.857 57.276 52.9593 53.5087C55.747 58.0127 58.111 61.2565 58.4024 61.6532C58.4758 61.7595 58.5697 61.8501 58.6787 61.9194C58.7877 61.9887 58.9095 62.0354 59.0369 62.0567C59.1643 62.0779 59.2947 62.0734 59.4203 62.0433C59.5459 62.0131 59.6642 61.9581 59.7681 61.8813C59.872 61.8046 59.9594 61.7077 60.0251 61.5965C60.0908 61.4853 60.1335 61.362 60.1506 61.234C60.1677 61.106 60.1589 60.9758 60.1247 60.8513C60.0905 60.7267 60.0316 60.6103 59.9515 60.509C58.3917 58.3905 56.2219 55.2088 54.0145 51.5737C58.2405 43.718 63.0333 33.204 62.0105 27.518C61.8783 26.7758 61.4492 25.8178 60.7044 24.5926C59.8929 23.2787 58.7738 22.182 57.4436 21.3973C56.1135 20.6126 54.6124 20.1634 53.0699 20.0886C50.7729 19.9569 48.5029 20.6381 46.6579 22.0127C45.1255 20.8594 43.2838 20.1895 41.3686 20.0886C39.0536 19.9565 36.7666 20.6487 34.9134 22.0424C32.8609 20.4982 30.2844 19.821 27.7379 20.1566C25.1914 20.4922 22.8783 21.8137 21.296 23.837C16.7947 29.6823 22.8801 42.5117 28.2963 51.6115C25.5275 56.6742 23.1203 60.4523 23.0582 60.5467ZM35.6151 59.327C34.1578 57.2814 32.3551 54.5827 30.5281 51.5602C32.0852 48.6673 33.7179 45.4127 35.1158 42.1716C36.606 45.4024 38.2718 48.5492 40.1056 51.598C38.2381 54.9956 36.5488 57.8076 35.6151 59.327ZM47.3569 59.2568C45.9104 57.2193 44.1185 54.5476 42.3212 51.5602C43.8621 48.697 45.4732 45.4802 46.8549 42.2742C48.3353 45.4682 49.9856 48.5806 51.7989 51.598C49.9665 54.947 48.2987 57.724 47.3569 59.2568ZM52.5275 21.983C52.6759 21.983 52.8243 21.983 52.9728 21.9965C54.2046 22.0449 55.4055 22.3969 56.4685 23.0212C57.5316 23.6454 58.424 24.5227 59.0663 25.5749C59.8273 26.8298 60.0621 27.4991 60.1215 27.8418C61.0067 32.7534 56.8183 42.1447 52.8675 49.6091C51.0066 46.4385 49.3394 43.1582 47.875 39.786C49.7155 35.0688 50.8678 30.5782 50.3038 27.5018C50.1716 26.7596 49.7452 25.8016 48.9977 24.5764C48.7277 24.1405 48.4217 23.728 48.0828 23.3432C49.3942 22.4538 50.943 21.9799 52.5275 21.983ZM46.6552 24.6142C46.9172 24.9149 47.1546 25.2362 47.365 25.5749C48.126 26.8298 48.3581 27.4991 48.4201 27.8418C48.8384 30.1626 48.1152 33.4928 46.8252 37.1387C44.9902 32.0679 44.3641 27.5396 46.3233 24.9947C46.4285 24.8625 46.5446 24.7438 46.6552 24.6169V24.6142ZM40.8234 21.983C40.9719 21.983 41.123 21.983 41.2714 21.9965C42.6881 22.0686 44.0573 22.5309 45.2276 23.3324C45.0819 23.4943 44.9308 23.6481 44.7986 23.8235C42.0621 27.3776 43.2468 33.5144 45.8079 39.8211C44.4585 43.1135 42.7989 46.5273 41.1662 49.6118C39.2826 46.4077 37.5991 43.0901 36.1251 39.6781C37.9386 35.0013 39.072 30.5566 38.5242 27.5045C38.392 26.7623 37.9629 25.8043 37.218 24.5791C36.9567 24.1583 36.6616 23.7594 36.3356 23.3863C37.6544 22.4738 39.2197 21.9844 40.8234 21.983ZM34.9026 24.6817C35.1467 24.9675 35.3686 25.2716 35.5665 25.5911C36.3275 26.846 36.5623 27.5153 36.6216 27.858C37.0345 30.1519 36.3329 33.4307 35.0753 37.0334C33.2753 32.0139 32.6735 27.5396 34.6165 25.0163C34.711 24.8814 34.8135 24.7788 34.9026 24.6817ZM22.8234 25.0109C23.5591 24.068 24.5012 23.3063 25.5771 22.7842C26.6531 22.2621 27.8344 21.9936 29.0303 21.9992C29.1788 21.9992 29.3272 21.9992 29.4756 22.0127C30.9157 22.0826 32.3067 22.5578 33.4885 23.3836C33.3563 23.5348 33.2186 23.6751 33.0918 23.837C30.3716 27.3695 31.5293 33.455 34.0579 39.724C32.7086 43.0514 31.0219 46.5057 29.3704 49.6253C24.1323 40.5821 19.3044 29.577 22.8288 24.9974L22.8234 25.0109Z" fill="#383838"/>
  </symbol>

  <symbol id="icon_2" viewBox="0 0 81 81">
    <path d="M40.5013 80.5301C18.4271 80.5301 0.470886 62.5739 0.470886 40.4997C0.470886 18.4255 18.4271 0.469238 40.5013 0.469238C62.5756 0.469238 80.5318 18.4255 80.5318 40.4997C80.5318 62.5739 62.5729 80.5301 40.5013 80.5301ZM40.5013 2.72523C19.6711 2.72523 2.72149 19.6695 2.72149 40.5051C2.72149 61.3407 19.6684 78.2849 40.5013 78.2849C61.3342 78.2849 78.2812 61.338 78.2812 40.5051C78.2812 19.6722 61.3288 2.72523 40.5013 2.72523Z" fill="#383838"/>
    <path d="M40.4986 81C18.168 81 0.00134277 62.8306 0.00134277 40.5C0.00134277 18.1694 18.168 0 40.4986 0C62.8292 0 80.9986 18.1694 80.9986 40.5C80.9986 62.8306 62.8292 81 40.4986 81ZM40.4986 0.939094C18.6862 0.939094 0.937744 18.6848 0.937744 40.5C0.937744 62.3152 18.6862 80.0609 40.4986 80.0609C62.3111 80.0609 80.0595 62.3125 80.0595 40.5C80.0595 18.6875 62.3138 0.939094 40.4986 0.939094ZM40.4986 78.744C19.4121 78.744 2.25464 61.5865 2.25464 40.5C2.25464 19.4134 19.4121 2.25599 40.4986 2.25599C61.5852 2.25599 78.7345 19.4107 78.7345 40.5C78.7345 61.5892 61.5906 78.744 40.4986 78.744ZM40.4986 3.1843C19.9275 3.1843 3.19374 19.9154 3.19374 40.4892C3.19374 61.063 19.9248 77.7941 40.4986 77.7941C61.0725 77.7941 77.8062 61.063 77.8062 40.4892C77.8062 19.9154 61.0698 3.1951 40.4986 3.1951V3.1843Z" fill="#383838"/>
    <path d="M50.3375 34.9002C44.4709 24.6457 40.6065 10.5295 40.6065 10.5295H40.2773C40.2773 10.5295 37.4465 24.3057 31.0321 34.4415C24.6176 44.5773 23.5381 51.912 25.4973 57.6491C27.4565 63.3862 33.933 67.0941 40.2773 67.1642C46.6216 67.2344 54.2559 63.9934 55.9425 56.8314C57.6291 49.6694 56.215 45.1629 50.3375 34.9002ZM53.7215 52.252C53.1063 58.0539 47.7712 61.2949 47.7712 61.2949C47.7712 61.2949 51.7489 56.8395 51.479 51.24C51.2092 45.6405 49.3202 40.3783 49.3202 40.3783C49.3202 40.3783 54.326 46.4474 53.7215 52.252Z" fill="#383838"/>
  </symbol>

  <symbol id="icon_3" viewBox="0 0 81 81">
    <path d="M40.5 80.5351C18.4265 80.5351 0.467346 62.576 0.467346 40.4997C0.467346 18.4235 18.4238 0.467041 40.5 0.467041C62.5763 0.467041 80.5354 18.4262 80.5354 40.4997C80.5354 62.5733 62.5763 80.5351 40.5 80.5351ZM40.5 2.72302C19.6699 2.72302 2.72331 19.6696 2.72331 40.4997C2.72331 61.3298 19.6699 78.2792 40.5 78.2792C61.3301 78.2792 78.2794 61.3325 78.2794 40.4997C78.2794 19.667 61.3328 2.72839 40.5 2.72839V2.72302Z" fill="#383838"/>
    <path d="M40.5 81.0027C18.1686 81.0027 0 62.8314 0 40.5C0 18.1686 18.1686 0 40.5 0C62.8314 0 81 18.1686 81 40.5C81 62.8314 62.8314 81.0027 40.5 81.0027ZM40.5 0.93461C18.6843 0.93461 0.934618 18.6843 0.934618 40.5C0.934618 62.3158 18.6923 80.0761 40.5 80.0761C62.3077 80.0761 80.0654 62.3265 80.0654 40.5081C80.0654 18.6896 62.3184 0.93461 40.5 0.93461ZM40.5 78.7467C19.4121 78.7467 2.25328 61.5879 2.25328 40.5C2.25328 19.4121 19.4121 2.25329 40.5 2.25329C61.5879 2.25329 78.7467 19.4121 78.7467 40.5C78.7467 61.5879 61.5879 78.7467 40.5 78.7467ZM40.5 3.1879C19.9277 3.1879 3.1879 19.9277 3.1879 40.5C3.1879 61.0723 19.9277 77.8121 40.5 77.8121C61.0723 77.8121 77.8121 61.075 77.8121 40.5C77.8121 19.925 61.075 3.1879 40.5 3.1879Z" fill="#383838"/>
    <path d="M61.5046 38.4747C60.8842 35.0692 58.032 32.2305 54.6373 31.5698C52.8352 31.2153 51.1459 31.5376 49.5157 32.2681C47.5155 33.2057 45.6121 34.3373 43.8328 35.6466C43.2662 36.0468 42.7129 36.4523 42.157 36.8767C42.0917 36.9097 42.0367 36.9599 41.9977 37.0219C41.9588 37.0839 41.9376 37.1553 41.9362 37.2285C41.9348 37.3017 41.9534 37.3738 41.9899 37.4372C42.0264 37.5006 42.0796 37.5529 42.1436 37.5884C42.8938 38.2007 43.6449 38.8104 44.3968 39.4173C44.4349 39.4627 44.4823 39.4994 44.5357 39.525C44.5892 39.5506 44.6474 39.5645 44.7067 39.5658C44.7659 39.5671 44.8247 39.5557 44.8792 39.5324C44.9337 39.5091 44.9826 39.4745 45.0226 39.4308C46.6191 38.2101 48.3112 37.1198 50.0824 36.1704C50.5632 35.9233 51.0627 35.7138 51.5595 35.4989C52.086 35.2775 52.6531 35.1693 53.224 35.1813C53.795 35.1933 54.3571 35.3253 54.8737 35.5688C55.8686 35.9908 56.6988 36.7255 57.2388 37.6616C57.7787 38.5978 57.9988 39.6844 57.8659 40.7569C57.7329 41.8294 57.2541 42.8293 56.5019 43.6053C55.7497 44.3812 54.7652 44.891 53.6973 45.0572C52.8916 45.1641 52.0721 45.0402 51.334 44.7001C49.9876 44.1158 48.699 43.4064 47.4854 42.5811C45.5307 41.2706 43.648 39.8559 41.8454 38.3431C39.6504 36.5186 37.3156 34.869 34.8627 33.4095C33.8287 32.802 32.743 32.287 31.6184 31.8706C30.6457 31.5134 29.6103 31.3589 28.5757 31.4166C27.5412 31.4743 26.5293 31.7431 25.6025 32.2063C22.7771 33.5491 21.1093 35.7809 20.5695 38.8587C20.5346 39.0655 20.5104 39.275 20.4809 39.4845V40.7602C20.548 41.1791 20.5991 41.6008 20.685 42.0144C21.0574 43.6775 21.904 45.1969 23.1224 46.3886C24.3408 47.5803 25.8786 48.3932 27.5496 48.7286C29.3571 49.0804 31.041 48.7286 32.6712 48.0034C34.1244 47.3374 35.5195 46.5513 36.842 45.6535L34.0731 42.9678C33.6139 43.2551 33.1465 43.5345 32.6658 43.795C31.9944 44.1602 31.2934 44.4771 30.5925 44.786C29.3436 45.3366 28.1243 45.1674 26.9453 44.5658C26.0311 44.1049 25.2836 43.3702 24.807 42.4641C24.3303 41.558 24.1484 40.5258 24.2865 39.5113C24.4214 38.4666 24.884 37.4916 25.6079 36.7263C26.3317 35.961 27.2794 35.4448 28.315 35.2518C29.1727 35.1097 30.0534 35.2325 30.8395 35.6037C32.4916 36.3404 34.066 37.2401 35.5395 38.2894C37.4195 39.5651 39.1544 41.0341 40.9323 42.4468C43.1053 44.2236 45.4251 45.813 47.8667 47.1977C48.8293 47.7413 49.842 48.191 50.8908 48.5406C52.5143 49.0606 54.2683 48.9989 55.8512 48.366C59.0553 47.144 60.954 44.8102 61.5691 41.4343C61.6093 41.214 61.6308 40.9885 61.6604 40.7655V39.4898C61.612 39.1488 61.5637 38.8104 61.5046 38.4747Z" fill="#383838"/>
    <path d="M34.7715 48.592L31.3446 43.4893C31.2731 43.3826 31.2312 43.2589 31.2232 43.1308C31.2152 43.0027 31.2413 42.8747 31.299 42.76C31.3566 42.6453 31.4437 42.5479 31.5512 42.4779C31.6588 42.4078 31.783 42.3676 31.9113 42.3613L37.86 42.0685C37.9849 42.0623 38.1093 42.0885 38.221 42.1445C38.3328 42.2006 38.4282 42.2846 38.4979 42.3884C38.5677 42.4921 38.6094 42.6122 38.619 42.7369C38.6286 42.8615 38.6059 42.9865 38.5529 43.0998L36.0311 48.5007C35.9762 48.6169 35.8914 48.7164 35.7854 48.789C35.6795 48.8616 35.5561 48.9048 35.428 48.914C35.2998 48.9233 35.1715 48.8984 35.0562 48.8418C34.9408 48.7852 34.8426 48.6991 34.7715 48.592Z" fill="#383838"/>
    <path d="M59.8931 25.1434L55.3812 20.653C55.2868 20.5591 55.2191 20.4419 55.1848 20.3133C55.1506 20.1846 55.1511 20.0492 55.1864 19.9209C55.2216 19.7925 55.2903 19.6758 55.3854 19.5827C55.4805 19.4895 55.5986 19.4233 55.7276 19.3907L61.7059 17.8894C61.8316 17.858 61.9632 17.8596 62.0881 17.8939C62.213 17.9283 62.3268 17.9943 62.4187 18.0856C62.5105 18.177 62.5772 18.2904 62.6124 18.4151C62.6475 18.5398 62.6498 18.6714 62.6191 18.7972L61.1527 24.7916C61.1206 24.9206 61.0548 25.0387 60.9622 25.134C60.8696 25.2293 60.7533 25.2984 60.6253 25.3342C60.4973 25.3699 60.3621 25.3711 60.2335 25.3376C60.1049 25.3041 59.9874 25.2371 59.8931 25.1434Z" fill="#383838"/>
    <path d="M51.6611 27.2221L53.3322 28.8933C53.649 29.21 54.1625 29.21 54.4793 28.8933L59.8175 23.555C60.1343 23.2383 60.1343 22.7247 59.8175 22.408L58.1464 20.7368C57.8296 20.4201 57.3161 20.4201 56.9993 20.7368L51.6611 26.0751C51.3443 26.3918 51.3443 26.9054 51.6611 27.2221Z" fill="#383838"/>
    <path d="M60.2022 56.2304L55.6903 60.7235C55.5958 60.8171 55.5279 60.9341 55.4936 61.0626C55.4593 61.1911 55.4598 61.3264 55.495 61.4546C55.5303 61.5829 55.5991 61.6994 55.6943 61.7923C55.7895 61.8852 55.9076 61.951 56.0367 61.9831L62.015 63.4844C62.1407 63.5158 62.2723 63.5143 62.3972 63.4799C62.522 63.4455 62.6359 63.3795 62.7278 63.2882C62.8196 63.1969 62.8863 63.0834 62.9214 62.9587C62.9565 62.8341 62.9589 62.7024 62.9282 62.5766L61.4618 56.5822C61.4297 56.4532 61.3639 56.3351 61.2713 56.2398C61.1786 56.1445 61.0624 56.0754 60.9344 56.0397C60.8064 56.0039 60.6712 56.0027 60.5426 56.0362C60.4139 56.0697 60.2965 56.1367 60.2022 56.2304Z" fill="#383838"/>
    <path d="M58.4539 60.6382L60.1251 58.9671C60.4418 58.6503 60.4418 58.1368 60.1251 57.82L54.7868 52.4818C54.4701 52.165 53.9565 52.165 53.6398 52.4818L51.9686 54.1529C51.6519 54.4697 51.6519 54.9832 51.9686 55.3L57.3069 60.6382C57.6236 60.955 58.1372 60.955 58.4539 60.6382Z" fill="#383838"/>
  </symbol>

  <symbol id="icon_4" viewBox="0 0 81 81">
    <path d="M40.4987 80.537C18.4293 80.537 0.46698 62.5801 0.46698 40.5053C0.46698 18.4306 18.4266 0.473633 40.4987 0.473633C62.5708 0.473633 80.5331 18.4306 80.5331 40.5053C80.5331 62.5801 62.5735 80.537 40.4987 80.537ZM40.4987 2.72632C19.67 2.72632 2.72236 19.6821 2.72236 40.5053C2.72236 61.3286 19.6781 78.2816 40.4987 78.2816C61.3193 78.2816 78.275 61.3286 78.275 40.4999C78.275 19.6713 61.3193 2.72094 40.4987 2.72094V2.72632Z" fill="#383838"/>
    <path d="M40.4987 81C18.1601 81 -0.00134277 62.8304 -0.00134277 40.5C-0.00134277 18.1696 18.1682 0 40.4987 0C62.8291 0 81.0014 18.1669 81.0014 40.5C81.0014 62.8331 62.8318 81 40.4987 81ZM40.4987 0.936598C18.6823 0.936598 0.935259 18.6836 0.935259 40.5C0.935259 62.3164 18.6823 80.0634 40.4987 80.0634C62.3151 80.0634 80.0621 62.3164 80.0621 40.5C80.0621 18.6836 62.3151 0.936598 40.4987 0.936598ZM40.4987 78.7446C19.4116 78.7446 2.25404 61.587 2.25404 40.5C2.25404 19.413 19.4116 2.25269 40.4987 2.25269C61.5857 2.25269 78.746 19.4103 78.746 40.5C78.746 61.5897 61.5884 78.7446 40.4987 78.7446ZM40.4987 3.18929C19.9257 3.18929 3.19064 19.927 3.19064 40.5C3.19064 61.073 19.9257 77.808 40.4987 77.808C61.0716 77.808 77.8094 61.0703 77.8094 40.5C77.8094 19.9297 61.0716 3.18929 40.4987 3.18929Z" fill="#383838"/>
    <path d="M62.4496 24.6694C62.4496 24.6694 59.882 23.9131 52.5479 22.0237C44.786 20.024 41.2091 19.3027 41.2091 19.3027C41.2091 19.3027 37.635 20.024 29.873 22.0237C22.539 23.9077 19.9687 24.6694 19.9687 24.6694C19.9687 24.6694 18.7603 32.0788 22.0868 45.7591C24.7782 56.7938 33.5763 63.9017 41.1957 66.5312C48.8311 63.9017 57.6347 56.8045 60.3207 45.7591C63.6607 32.0922 62.4496 24.6694 62.4496 24.6694ZM37.9579 53.6852L27.6526 43.3799L31.8781 39.1544L37.9579 45.2342L53.3123 29.8933L57.5378 34.1188L37.9579 53.6852Z" fill="#383838"/>
  </symbol>

  <symbol id="icon_5" viewBox="0 0 81 81">
    <path d="M40.5 80.5329C18.4245 80.5329 0.468628 62.5745 0.468628 40.5016C0.468628 18.4288 18.4245 0.462158 40.5 0.462158C62.5755 0.462158 80.5314 18.4207 80.5314 40.4962C80.5314 62.5718 62.5729 80.5329 40.5 80.5329ZM40.5 2.7234C19.6706 2.7234 2.72184 19.6695 2.72184 40.5016C2.72184 61.3337 19.6706 78.2771 40.5 78.2771C61.3294 78.2771 78.2782 61.331 78.2782 40.5016C78.2782 19.6722 61.3294 2.7234 40.5 2.7234Z" fill="#383838"/>
    <path d="M40.5 81C18.1693 81 0.00134277 62.832 0.00134277 40.5014C0.00134277 18.1707 18.1693 0 40.5 0C62.8307 0 80.9987 18.1707 80.9987 40.5014C80.9987 62.832 62.8307 81 40.5 81ZM40.5 0.93458C18.6823 0.93458 0.935926 18.6837 0.935926 40.5014C0.935926 62.3191 18.6823 80.0654 40.5 80.0654C62.3177 80.0654 80.0641 62.3164 80.0641 40.5014C80.0641 18.6863 62.3151 0.93458 40.5 0.93458ZM40.5 78.7468C19.4128 78.7468 2.25455 61.5886 2.25455 40.5014C2.25455 19.4141 19.4128 2.25587 40.5 2.25587C61.5873 2.25587 78.7455 19.4141 78.7455 40.5014C78.7455 61.5886 61.5873 78.7468 40.5 78.7468ZM40.5 3.19045C19.9257 3.19045 3.18914 19.9271 3.18914 40.5014C3.18914 61.0757 19.9257 77.8069 40.5 77.8069C61.0743 77.8069 77.8082 61.073 77.8082 40.5014C77.8082 19.9298 61.0716 3.19045 40.5 3.19045Z" fill="#383838"/>
    <path d="M35.9908 20.6035C35.2093 21.1621 34.1109 21.385 33.0367 21.5139C31.9625 21.6428 30.9339 21.7207 30.9339 23.0044V24.3633C31.5713 23.9 32.3428 23.6576 33.1307 23.6731C35.1019 23.6731 36.536 24.7474 36.536 26.912V29.6674C36.536 31.8642 34.6185 32.9438 32.7198 32.9438C30.8211 32.9438 28.8875 31.8696 28.8875 29.6674V22.854C28.8875 20.5659 30.7862 19.9509 32.4781 19.7844C33.7081 19.6528 34.6266 19.4299 35.3463 19.0217L35.9908 20.6035ZM30.9285 26.0741V29.6298C30.9285 30.5778 31.8416 31.045 32.7144 31.045C33.5872 31.045 34.4842 30.5778 34.4842 29.6298V26.8931C34.4842 25.8511 33.7027 25.4778 32.7896 25.4778C32.1219 25.4642 31.4682 25.6699 30.9285 26.0633V26.0741Z" fill="#383838"/>
    <path d="M45.428 30.9594C45.0717 31.5603 44.5652 32.0583 43.9583 32.4043C43.3514 32.7504 42.6649 32.9327 41.9663 32.9333C40.0675 32.9333 38.15 31.8349 38.15 29.6193V26.2435C38.15 23.9903 40.0675 22.9294 41.9663 22.9294C43.8086 22.9294 45.7261 24.0037 45.7261 26.2435V28.8861H40.2099V29.5548C40.2099 30.4303 41.0478 30.9513 41.9233 30.9513C42.6296 30.9513 43.3547 30.7096 43.7092 29.9845L45.428 30.9594ZM43.7522 26.2677C43.7522 25.3761 42.8767 24.9114 41.985 24.9114C41.0934 24.9114 40.1776 25.3572 40.2152 26.3052V27.1808H43.7522V26.2677Z" fill="#383838"/>
    <path d="M53.6539 25.5427C53.6685 25.9505 53.5723 26.3546 53.3756 26.7121C53.1788 27.0696 52.889 27.3671 52.5367 27.573C52.9999 27.7648 53.3929 28.0945 53.6625 28.5172C53.932 28.94 54.0649 29.4355 54.0433 29.9364C54.0272 31.964 52.2574 32.9335 50.4151 32.9335C48.9085 32.9335 47.4744 32.4098 46.7681 31.1261L48.1619 30.0841C48.4066 30.395 48.7217 30.6434 49.0812 30.8087C49.4408 30.9739 49.8344 31.0515 50.2298 31.0348C51.2906 31.0348 51.9781 30.5863 51.9781 29.7134C51.9781 28.7627 51.3819 28.4647 50.2674 28.4647H48.981V26.8533H50.2486C51.1026 26.8533 51.6612 26.6116 51.6612 25.8113C51.6612 25.1614 51.1026 24.8257 50.1922 24.8257C49.8346 24.8011 49.4763 24.8613 49.1464 25.0013C48.8165 25.1413 48.5242 25.3571 48.2935 25.6314L47.0662 24.5706C47.8289 23.4158 49.075 22.9136 50.4339 22.9136C52.2762 22.9189 53.6539 23.9233 53.6539 25.5427Z" fill="#383838"/>
    <path d="M14.7882 40.6626H20.9087C24.5476 40.6626 26.3792 43.2972 26.3792 45.8646C26.3792 48.5019 24.5476 51.0021 20.9302 51.0021H17.3341V56.4727H14.7882V40.6626ZM20.9087 48.6361C22.8503 48.6361 23.8118 47.2289 23.8118 45.9102C23.8118 44.5916 22.8289 43.2515 20.9087 43.2515H17.3341V48.6361H20.9087Z" fill="#383838"/>
    <path d="M31.471 47.6961H38.33V50.2878H31.471V56.4646H28.8821V40.6545H39.2887V43.2435H31.471V47.6961Z" fill="#383838"/>
    <path d="M41.3461 45.5528C41.3461 42.1367 44.5151 40.4502 47.7324 40.4502C50.9497 40.4502 54.1429 42.1475 54.1429 45.5528V51.5605C54.1429 54.9766 50.9202 56.698 47.7324 56.698C44.5446 56.698 41.3461 54.9766 41.3461 51.5605V45.5528ZM43.9135 51.539C43.9135 53.2363 45.8122 54.1064 47.7324 54.1064C49.6526 54.1064 51.5728 53.2363 51.5728 51.539V45.5985C51.5728 43.7884 49.6526 43.0284 47.7324 43.0284C45.8122 43.0284 43.9135 43.8341 43.9135 45.5985V51.539Z" fill="#383838"/>
    <path d="M69.3512 56.4727H66.6495L65.1079 52.3637H59.436L58.0072 56.4727H55.2491L60.9453 40.6626H63.647L69.3512 56.4727ZM62.2317 43.2757L61.5844 45.8216L60.3115 49.7748H64.219L62.9246 45.776L62.323 43.2757H62.2317Z" fill="#383838"/>
  </symbol>
</svg>